<?xml version="1.0" encoding="utf-8"?>
<!-- Generator: Adobe Illustrator 16.0.0, SVG Export Plug-In . SVG Version: 6.00 Build 0)  -->
<!DOCTYPE svg PUBLIC "-//W3C//DTD SVG 1.1//EN" "http://www.w3.org/Graphics/SVG/1.1/DTD/svg11.dtd">
<svg version="1.1" id="Layer_1" xmlns="http://www.w3.org/2000/svg" xmlns:xlink="http://www.w3.org/1999/xlink" x="0px" y="0px"
	 width="126px" height="126px" viewBox="0 0 126 126" enable-background="new 0 0 126 126" xml:space="preserve">
<path d="M15.378,22.501h23.048c-0.796,4.802-4.551,8.785-9.62,9.62C22.441,33.17,16.432,28.864,15.378,22.501z M48.594,63h75.938
	v5.479h-11.157l4.86,45.666h-4.86l-4.86-45.666H49.426l0.85,5.598c0.285,1.884-1.01,3.643-2.894,3.928
	c-1.746,0.266-3.387-0.831-3.843-2.494l-1.937-7.031h-0.018c1.693,15.18,1.677,30.625,1.677,30.625h-6.385
	c-0.054,7.814-0.099,14.472-0.099,14.472c-0.014,2.063-1.698,3.723-3.762,3.709c-1.93-0.014-3.51-1.506-3.692-3.386
	c0,0-0.642-6.849-1.387-14.795h-0.595l-1.354-15.748l-0.371,15.748h-1.193c-0.746,7.946-1.387,14.795-1.387,14.795
	c-0.193,2.054-2.014,3.563-4.068,3.37c-1.922-0.181-3.367-1.805-3.386-3.693c0,0-0.046-6.657-0.099-14.472H7.754
	c-0.274-4.677,1.099-19.013,2.437-31.35l-1.947,7.068c-0.456,1.664-2.096,2.76-3.842,2.495c-1.885-0.286-3.18-2.045-2.895-3.929
	L4.15,55.973c0.022-0.143,0.062-0.297,0.114-0.438l0.018-0.048l0.4-1.063l0.314-0.79l0.648-1.556c0.443-1.029,0.91-2.05,1.402-3.065
	c0.986-2.029,2.071-4.039,3.357-6.03c1.305-1.986,2.746-3.973,4.861-5.876c0.168-0.148,0.35-0.295,0.529-0.442l-2.848-7.946
	l1.991,0.697l-0.003-0.01l11.15,3.909l0.047,14.552l2.434-0.023l-0.01-14.839l10.276-3.599l-2.847,7.946
	c0.179,0.146,0.361,0.294,0.529,0.441c0.886,0.797,1.648,1.608,2.337,2.429c0.375-0.818,1.197-1.393,2.157-1.393h6.928
	c1.312,0,2.376,1.066,2.376,2.377v16.232c0,1.253-0.976,2.271-2.206,2.359L48.594,63z M48.731,55.659V41.206
	c0-0.438-0.354-0.793-0.793-0.793h-6.928c-0.438,0-0.793,0.355-0.793,0.793v0.773c0.405,0.563,0.789,1.126,1.16,1.69
	c1.285,1.991,2.37,4,3.357,6.03c0.492,1.016,0.959,2.036,1.401,3.065l0.649,1.556l0.314,0.79l0.206,0.548H48.731z M8.31,21.621
	h36.353V37.64h2.506V18.398H93.21v13.396h2.506V15.893H44.662v3.834h-5.366V15.06c0-4.188-1.747-6.346-5.935-6.346H20.759
	c-4.188,0-5.523,2.158-5.523,6.346v4.667H8.31c-0.523,0-0.947,0.424-0.947,0.947S7.786,21.621,8.31,21.621z M86.425,44.396h-35
	v2.506h35V44.396z M65.334,47.841v7.203h-6.891v2.506h23.491v-2.506h-6.891v-7.203H65.334z M88.199,33.361h34.767v23.491H88.199
	V33.361z M89.452,55.601h32.262V34.614H89.452V55.601z M86.633,57.963v1.853c0,0,9.919,0.626,18.879,0.626
	c8.959,0,19.021-0.626,19.021-0.626v-1.853H86.633z"/>
</svg>
